# xmcd
#
# Track frame offsets:
#	150
#	23513
#	47168
#	65040
#	87572
#	111218
#	131538
#	152442
#	174819
#	196092
#	219170
#	239608
#
# Disc length: 3439 seconds
#
# Revision: 0
# Processed by: cddbd v1.5.2PL0 Copyright (c) Steve Scherf et al.
# Submitted via: dBpowerAMP V4.0
#
DISCID=980d6d0c
DTITLE=Azercan - Sende Anlarsýn - Titresin ellerin
DYEAR=2011
DGENRE=
TTITLE0=Sende Anlarsýn
TTITLE1=Titresin Ellerin
TTITLE2=Çiçeðim
TTITLE3=Yar Yar
TTITLE4=Gün Görmedim Anam
TTITLE5=Niye
TTITLE6=Ateþin Sönmedi
TTITLE7=Davacýyým Ben
TTITLE8=Son Sözüm
TTITLE9=Kömür Gözlüm
TTITLE10=Barak Kýzý
TTITLE11=Loy Hanýým - Nanay Güzelim
EXTD=
EXTT0=
EXTT1=
EXTT2=
EXTT3=
EXTT4=
EXTT5=
EXTT6=
EXTT7=
EXTT8=
EXTT9=
EXTT10=
EXTT11=
PLAYORDER=
